<?xml version="1.0" standalone="no"?>
<!DOCTYPE svg PUBLIC "-//W3C//DTD SVG 20010904//EN"
 "http://www.w3.org/TR/2001/REC-SVG-20010904/DTD/svg10.dtd">
<svg version="1.0" xmlns="http://www.w3.org/2000/svg"
   viewBox="0 0 100000 100000"
 preserveAspectRatio="xMidYMid meet">
<metadata>
Created by potrace 1.16, written by Peter Selinger 2001-2019
</metadata>
<g transform="translate(0.000000,438.000000) scale(0.100000,-0.100000)"
fill="#000000" stroke="none">
<path d="M4955 3665 c-243 -32 -466 -112 -630 -226 -79 -54 -114 -88 -54 -52
197 119 296 162 462 203 183 45 261 53 441 47 229 -8 363 -41 572 -141 131
-63 197 -104 297 -185 252 -204 431 -492 501 -804 37 -162 51 -343 37 -461
-13 -115 -14 -173 -2 -160 30 32 48 282 32 439 -45 421 -247 786 -576 1042
-66 51 -224 144 -299 175 -292 123 -517 159 -781 123z"/>
<path d="M3060 3603 c-257 -29 -482 -121 -675 -276 -160 -128 -256 -251 -319
-406 -39 -96 -30 -98 14 -4 105 223 290 403 545 531 237 118 475 155 742 116
229 -33 392 -91 543 -194 194 -132 304 -381 265 -602 -18 -104 -18 -120 1 -85
9 16 21 68 27 116 9 75 8 102 -6 176 -44 220 -166 374 -385 484 -116 58 -272
109 -389 125 -104 16 -305 26 -363 19z"/>
<path d="M3215 3032 c-195 -82 -382 -257 -477 -447 -38 -74 -72 -174 -64 -183
2 -2 25 40 50 93 112 238 266 397 489 506 90 45 92 69 2 31z"/>
<path d="M3635 2893 c-141 -51 -234 -149 -299 -313 -46 -117 -59 -188 -60
-310 0 -90 5 -132 22 -193 12 -43 20 -83 17 -88 -4 -5 -67 -9 -140 -9 -125 0
-135 -1 -145 -21 -9 -16 -7 -34 9 -82 16 -47 21 -86 21 -175 l0 -113 -30 17
c-45 27 -50 6 -7 -28 l37 -30 0 -103 c0 -81 -3 -107 -16 -119 -13 -14 -53 -16
-279 -16 -261 0 -264 0 -279 22 -13 19 -16 60 -16 247 0 204 2 231 22 293 33
104 36 102 -170 106 -166 2 -171 2 -182 -19 -10 -17 -8 -33 9 -79 19 -52 21
-76 19 -207 l-3 -148 -42 63 c-74 112 -125 255 -142 403 l-8 74 -2 -66 c-1
-76 35 -231 73 -314 13 -29 47 -89 75 -132 l51 -80 0 -641 c0 -618 -1 -644
-20 -694 -25 -65 -25 -63 0 -88 18 -18 33 -20 174 -20 200 0 207 6 166 125
-19 54 -20 84 -20 437 0 365 1 379 20 398 14 14 33 20 68 20 41 0 54 -6 97
-41 94 -79 156 -120 172 -117 11 2 -15 29 -77 78 l-94 75 89 3 c62 2 115 -3
179 -18 50 -11 101 -23 114 -25 21 -5 22 -10 22 -100 0 -109 1 -108 -84 -70
-31 14 -64 25 -73 25 -31 0 6 -27 82 -61 l75 -33 0 -261 c0 -236 -2 -268 -20
-320 -11 -32 -20 -62 -20 -67 0 -4 9 -17 20 -28 18 -18 33 -20 173 -20 141 0
155 2 172 20 17 19 17 22 -4 92 -19 65 -21 97 -21 287 l0 214 33 -6 c116 -21
159 -27 248 -33 l99 -7 0 -195 c0 -174 -2 -203 -22 -263 -21 -66 -21 -69 -3
-89 17 -18 30 -20 175 -20 145 0 158 2 175 20 18 20 18 23 -4 93 -20 66 -22
89 -19 262 l3 190 45 3 c65 4 281 30 308 38 l22 6 0 -218 c0 -198 -2 -224 -22
-287 l-23 -69 24 -19 c22 -18 47 -19 506 -19 457 0 483 1 499 19 14 16 16 39
14 161 -4 174 -4 175 -106 142 -63 -20 -88 -22 -308 -22 -201 0 -243 3 -262
16 -21 15 -22 20 -22 198 l0 183 74 27 c108 38 206 84 206 96 0 16 -12 13
-107 -26 -48 -20 -99 -40 -113 -44 -14 -4 -33 -11 -42 -15 -17 -7 -18 9 -18
253 l0 261 83 25 c307 92 567 153 865 202 l32 5 0 -153 0 -153 -41 -29 c-49
-34 -44 -47 5 -16 l36 22 0 -496 c0 -472 -1 -498 -20 -546 -11 -28 -20 -55
-20 -60 0 -6 9 -19 20 -30 19 -19 33 -20 504 -20 431 0 486 2 501 16 13 13 15
39 13 161 -4 178 -4 178 -106 145 -63 -20 -88 -22 -310 -22 -229 0 -243 1
-262 20 -20 20 -20 31 -18 497 l3 477 89 38 c143 61 457 166 506 170 l45 4
-125 60 c-139 67 -355 155 -442 179 -77 22 -82 29 -56 98 17 47 19 62 10 82
-11 24 -15 25 -109 26 -54 0 -105 3 -114 7 -9 4 -126 104 -260 222 -316 279
-304 270 -351 270 -43 0 -58 -13 -416 -365 l-132 -130 -127 -5 c-154 -6 -158
-9 -125 -102 33 -95 30 -110 -35 -186 -54 -63 -55 -65 -13 -27 25 22 46 43 48
48 12 25 22 -2 22 -58 0 -59 -2 -65 -22 -70 -38 -10 -229 -20 -295 -17 l-63 4
0 124 c0 101 4 133 21 180 17 45 19 61 10 80 l-11 24 -171 -2 c-206 -4 -205
-3 -171 -100 17 -48 22 -85 22 -155 0 -51 -3 -93 -6 -93 -19 0 -137 67 -185
104 -66 52 -149 159 -149 192 0 13 -9 33 -19 43 -53 53 -76 149 -75 306 3 257
115 485 277 565 157 76 305 55 450 -65 32 -26 60 -45 64 -41 12 12 -83 91
-157 131 -69 36 -83 39 -165 42 -68 3 -102 -1 -140 -14z m1591 -448 c18 -14
18 -14 -3 -8 -13 3 -23 2 -23 -2 0 -4 18 -40 40 -80 35 -64 39 -76 29 -98 -13
-29 -54 -61 -89 -70 -14 -3 -45 -23 -68 -43 -46 -39 -66 -39 -84 1 -24 53 -79
46 -163 -20 -68 -52 -92 -59 -49 -14 83 88 365 349 376 349 8 0 23 -7 34 -15z
m312 -305 c65 -23 95 -40 147 -86 36 -32 65 -61 65 -66 0 -4 -16 -8 -35 -8
-48 0 -61 -27 -42 -85 9 -24 13 -46 9 -49 -3 -3 -43 -6 -90 -6 -79 0 -197 -22
-215 -40 -5 -4 12 -4 37 1 25 5 99 10 163 11 l118 3 3 -137 c3 -153 9 -140
-78 -153 -187 -27 -599 -126 -882 -211 -17 -5 -18 7 -18 150 0 86 2 156 4 156
2 0 67 22 144 49 135 48 305 91 356 91 24 0 43 16 33 27 -10 10 -165 -16 -259
-43 -51 -15 -133 -42 -181 -60 -49 -19 -91 -34 -93 -34 -2 0 -4 38 -4 85 0 61
6 100 21 141 24 64 16 104 -21 104 -11 0 -20 3 -20 7 0 17 76 83 96 83 11 0
52 20 90 45 37 25 76 45 86 45 10 0 25 -14 33 -30 30 -58 76 -59 160 -3 64 42
87 42 121 -2 44 -59 111 -44 129 28 6 21 12 26 24 22 9 -4 53 -20 99 -35z
m-2033 -403 c46 -44 130 -97 193 -122 l42 -17 0 -90 0 -89 -72 2 c-87 2 -281
24 -297 33 -15 10 -15 342 1 386 l11 33 41 -49 c22 -27 59 -66 81 -87z m2600
-3 c145 -47 488 -193 420 -179 -16 3 -141 9 -277 12 l-248 5 0 94 c0 70 3 94
13 94 7 0 48 -12 92 -26z m-1685 -342 l0 -178 -183 -62 c-100 -34 -186 -62
-190 -62 -4 0 -7 74 -7 164 l0 164 36 7 c64 12 164 46 164 55 0 14 -6 13 -96
-10 -44 -11 -85 -20 -91 -20 -9 0 -13 17 -13 51 l0 52 58 -6 c31 -3 107 0 167
7 61 7 120 14 133 15 l22 1 0 -178z m2005 149 c58 -9 62 -6 -115 -67 -74 -25
-172 -61 -218 -80 -45 -19 -84 -34 -87 -34 -3 0 -5 40 -5 89 0 85 1 90 23 94
38 7 349 6 402 -2z m-2968 -131 c32 -6 109 -13 171 -17 l112 -6 -2 -191 -3
-191 -65 -12 c-36 -6 -120 -15 -187 -19 l-123 -7 0 232 c0 224 1 232 19 226
11 -3 45 -10 78 -15z m961 -487 l-3 -257 -75 -12 c-41 -7 -126 -16 -187 -20
l-113 -7 0 215 0 215 183 61 c100 33 185 60 190 61 4 1 6 -115 5 -256z m-678
-119 l0 -177 -107 7 c-60 3 -145 12 -190 18 l-83 12 0 137 0 137 88 6 c68 5
237 26 285 35 4 0 7 -78 7 -175z"/>
<path d="M9480 2649 c-365 -38 -705 -286 -893 -652 -169 -329 -203 -734 -90
-1091 123 -390 416 -700 776 -821 86 -28 243 -55 327 -55 91 0 245 28 343 61
51 18 114 35 142 38 69 8 75 23 75 191 0 107 -3 140 -16 158 -20 29 -52 28
-95 -4 -137 -103 -347 -157 -528 -135 -461 56 -784 509 -757 1061 17 358 170
659 419 823 144 95 256 130 422 130 165 0 294 -38 428 -127 67 -44 103 -47
118 -9 6 17 9 88 7 171 -3 130 -5 145 -23 158 -11 9 -31 13 -45 10 -14 -2 -50
7 -82 20 -88 37 -193 62 -307 74 -57 5 -111 9 -120 9 -9 -1 -54 -6 -101 -10z"/>
<path d="M814 2636 c-365 -70 -647 -294 -758 -604 -30 -83 -31 -93 -31 -242 1
-142 3 -162 28 -238 16 -45 44 -115 63 -154 18 -40 34 -82 34 -93 0 -11 5 -37
11 -57 17 -63 40 -60 176 17 128 73 163 100 163 125 0 9 -21 36 -46 60 -120
117 -166 338 -105 501 71 187 261 336 491 384 407 86 766 -218 675 -570 -25
-95 -73 -173 -161 -261 -66 -68 -97 -90 -175 -128 -104 -50 -120 -54 -143 -30
-23 22 -24 520 -1 584 38 108 21 120 -169 120 -82 0 -156 -5 -167 -10 -24 -14
-24 -42 1 -115 19 -56 20 -84 20 -887 0 -803 -1 -830 -20 -885 -24 -67 -25
-96 -6 -112 9 -8 65 -11 176 -9 189 3 195 6 170 80 -11 33 -15 136 -17 462 -2
231 0 423 5 428 5 5 51 20 103 34 420 112 718 485 696 873 -10 187 -70 330
-194 461 -117 124 -235 197 -400 246 -109 32 -306 41 -419 20z"/>
<path d="M2640 2259 c-25 -104 3 -258 65 -351 14 -21 26 -41 26 -45 6 -41 167
-189 185 -170 3 3 -33 42 -79 88 -136 136 -185 261 -172 437 7 103 -6 123 -25
41z"/>
<path d="M6788 2071 c-148 -13 -65 -21 225 -21 281 0 374 8 279 24 -45 7 -411
5 -504 -3z"/>
<path d="M6855 1970 c-8 -14 10 -42 72 -111 27 -29 77 -106 112 -169 35 -63
127 -222 203 -354 77 -131 145 -255 152 -275 9 -25 15 -154 20 -436 6 -385 6
-403 -14 -459 -44 -128 -34 -136 164 -136 201 0 211 8 171 131 -16 48 -18 98
-19 459 -1 351 1 410 15 440 9 19 110 197 224 395 163 283 220 373 267 422 90
95 88 97 -118 101 -206 3 -212 0 -237 -101 -12 -45 -51 -125 -131 -263 -110
-193 -145 -244 -165 -244 -26 0 -69 61 -176 248 -82 144 -119 220 -127 258 -8
40 -19 61 -40 79 -29 24 -33 25 -198 25 -107 0 -171 -4 -175 -10z"/>
<path d="M10831 1964 c-233 -62 -422 -290 -477 -572 -34 -179 -8 -393 68 -554
119 -250 315 -388 550 -388 168 0 276 48 409 180 76 75 93 100 137 191 73 151
87 214 87 394 0 179 -14 244 -85 390 -92 190 -233 315 -407 360 -72 19 -211
18 -282 -1z m251 -307 c54 -23 129 -102 165 -175 119 -238 60 -552 -130 -686
-57 -40 -60 -41 -141 -41 -80 0 -86 2 -138 38 -127 87 -198 239 -198 422 0
101 15 166 61 261 84 177 229 246 381 181z"/>
<path d="M11856 280 c-92 -28 -122 -142 -54 -210 81 -82 213 -25 213 92 0 53
-27 91 -82 114 -36 16 -37 16 -77 4z"/>
<path d="M10352 248 c-19 -19 -16 -183 4 -202 14 -14 84 -16 619 -16 535 0
605 2 619 16 20 19 23 183 4 202 -17 17 -1229 17 -1246 0z"/>
</g>
</svg>
